<svg width="32" height="24" viewBox="0 0 32 24" fill="none" xmlns="http://www.w3.org/2000/svg">
<path opacity="0.5" d="M11 10.4033C11 14.4854 14.3213 17.8066 18.4033 17.8066C20.0176 17.8066 21.4927 17.2871 22.708 16.415L27.2725 20.9888C27.4858 21.2021 27.7642 21.3042 28.061 21.3042C28.6919 21.3042 29.1279 20.8311 29.1279 20.2095C29.1279 19.9126 29.0166 19.6436 28.8218 19.4487L24.2852 14.8843C25.2407 13.6411 25.8066 12.0918 25.8066 10.4033C25.8066 6.32129 22.4854 3 18.4033 3C14.3213 3 11 6.32129 11 10.4033ZM12.5864 10.4033C12.5864 7.19336 15.1934 4.58643 18.4033 4.58643C21.6133 4.58643 24.2202 7.19336 24.2202 10.4033C24.2202 13.6133 21.6133 16.2202 18.4033 16.2202C15.1934 16.2202 12.5864 13.6133 12.5864 10.4033Z" fill="white"/>
</svg>
